<svg aria-hidden="true" style="position: absolute; width: 0; height: 0; overflow: hidden;" version="1.1" xmlns="http://www.w3.org/2000/svg" xmlns:xlink="http://www.w3.org/1999/xlink">
<defs>
<symbol id="icon-easy-toast-close" viewBox="0 0 32 32">
<path fill="#fff" style="fill: var(--color1, #fff)" d="M4.28 5.7c-0.1-0.1-0.16-0.2-0.22-0.32-0.040-0.12-0.080-0.26-0.080-0.38 0-0.14 0.040-0.28 0.080-0.4 0.060-0.12 0.12-0.22 0.22-0.32s0.2-0.16 0.32-0.22c0.12-0.040 0.26-0.080 0.4-0.080 0.12 0 0.26 0.040 0.38 0.080 0.12 0.060 0.22 0.12 0.32 0.22l10.3 10.3 10.28-10.3c0.1-0.1 0.2-0.16 0.32-0.22 0.12-0.040 0.26-0.080 0.4-0.080 0.12 0 0.26 0.040 0.38 0.080 0.12 0.060 0.22 0.12 0.32 0.22s0.16 0.2 0.22 0.32c0.040 0.12 0.080 0.26 0.080 0.4 0 0.12-0.040 0.26-0.080 0.38-0.060 0.12-0.12 0.22-0.22 0.32l-10.3 10.3 10.3 10.28c0.1 0.1 0.16 0.2 0.22 0.32 0.040 0.12 0.080 0.26 0.080 0.4 0 0.12-0.040 0.26-0.080 0.38-0.060 0.12-0.12 0.22-0.22 0.32s-0.2 0.16-0.32 0.22c-0.12 0.040-0.26 0.080-0.38 0.080-0.14 0-0.28-0.040-0.4-0.080-0.12-0.060-0.22-0.12-0.32-0.22l-10.28-10.3-10.3 10.3c-0.1 0.1-0.2 0.16-0.32 0.22-0.12 0.040-0.26 0.080-0.38 0.080-0.14 0-0.28-0.040-0.4-0.080-0.12-0.060-0.22-0.12-0.32-0.22s-0.16-0.2-0.22-0.32c-0.040-0.12-0.080-0.26-0.080-0.38 0-0.14 0.040-0.28 0.080-0.4 0.060-0.12 0.12-0.22 0.22-0.32l10.3-10.28-10.3-10.3z"></path>
</symbol>
</defs>
</svg>
